<?xml version="1.0" standalone="no"?>
<!DOCTYPE svg PUBLIC "-//W3C//DTD SVG 1.1//EN" "http://www.w3.org/Graphics/SVG/1.1/DTD/svg11.dtd" >
<svg xmlns="http://www.w3.org/2000/svg" xmlns:xlink="http://www.w3.org/1999/xlink" version="1.1">
<metadata></metadata>
<defs>
<font id="anisha_freeregular" horiz-adv-x="937" >
<font-face units-per-em="2048" ascent="1536" descent="-512" />
<missing-glyph horiz-adv-x="847" />
<glyph horiz-adv-x="0" />
<glyph horiz-adv-x="682" />
<glyph horiz-adv-x="0" />
<glyph horiz-adv-x="0" />
<glyph unicode="&#xd;" horiz-adv-x="847" />
<glyph unicode=" "  horiz-adv-x="847" />
<glyph unicode="&#x09;" horiz-adv-x="847" />
<glyph unicode="&#xa0;" horiz-adv-x="847" />
<glyph unicode="!" horiz-adv-x="616" d="M164 213q0 34 24.5 57t59.5 23q28 0 44.5 -15t16.5 -42q0 -35 -23.5 -58.5t-60.5 -23.5q-28 0 -44.5 15.5t-16.5 43.5zM258 492q0 87 82.5 318.5t176.5 427.5t124 196q37 0 63.5 -33.5t26.5 -79.5q0 -41 -27.5 -110t-56.5 -123.5t-86 -153.5q-67 -118 -103.5 -187.5 t-72 -164.5t-35.5 -158q0 -15 -3.5 -20t-16.5 -5q-32 0 -52 26.5t-20 66.5z" />
<glyph unicode="&#x22;" horiz-adv-x="620" d="M369 1333q0 63 20.5 133t61.5 70q17 0 29 -11t12 -26q0 -20 -41 -88q-45 -72 -45 -104q0 -10 -5 -18.5t-12 -8.5q-20 0 -20 53zM539 1333q0 63 20.5 133t61.5 70q17 0 29 -11t12 -26q0 -20 -41 -88q-46 -74 -46 -104q0 -10 -4.5 -18.5t-11.5 -8.5q-20 0 -20 53z" />
<glyph unicode="#" horiz-adv-x="1148" d="M76 385q0 31 43.5 56t109.5 36q35 7 101 12q11 26 37.5 87t40.5 94q-129 -16 -170 -43l-2 4q-11 -8 -25 -8q-11 0 -19 7.5t-8 20.5q0 30 35 54.5t90 33.5q60 10 135 15q124 268 150 268q4 0 10.5 -10.5t11.5 -29.5t5 -38q0 -54 -54 -182q102 4 189 4q120 256 145 256 q4 0 10.5 -10.5t11.5 -29.5t5 -38q0 -54 -51 -182q100 0 164.5 -8.5t64.5 -20.5q0 -10 -47.5 -36t-63.5 -23q-76 11 -149 14q-42 -99 -82 -186q100 0 165.5 -8.5t65.5 -20.5q0 -9 -46.5 -34.5t-63.5 -24.5q-65 9 -156 12q-123 -283 -123 -322q0 -12 -10 -12 q-22 0 -36.5 37.5t-14.5 93.5q0 36 65 203q-102 0 -190 -6q-123 -280 -123 -318q0 -12 -10 -12q-22 0 -36.5 37.5t-14.5 93.5q0 34 61 189q-129 -16 -170 -43q-12 -9 -25 -9q-11 0 -18.5 7.5t-7.5 19.5zM457 498q102 4 190 4q77 182 78 184q-97 0 -186 -6h-4 q-3 -6 -14 -30.5t-17 -39.5q-10 -27 -47 -112z" />
<glyph unicode="%" horiz-adv-x="1005" d="M57 211q0 35 215 339t440 594t249 290q18 0 18 -82q0 -30 -121 -198.5t-340 -457.5q-403 -530 -403 -569q0 -8 -13 -8q-45 0 -45 92zM180 1200q0 47 18 76t44 37q17 46 65.5 85.5t106.5 39.5q60 0 100.5 -43t40.5 -123q0 -108 -72 -179t-151 -71q-64 0 -108 50.5 t-44 127.5zM264 1171q0 -49 19 -76.5t45 -27.5q47 0 94 74t47 168q0 46 -14.5 66t-46.5 20q-39 0 -72 -24t-49 -58q20 -9 20 -23q0 -4 -8 -4q-12 0 -23.5 -38t-11.5 -77zM442 297q0 47 18 76t44 37q17 46 65.5 85.5t106.5 39.5q60 0 100.5 -43t40.5 -123q0 -108 -72 -179 t-151 -71q-64 0 -108 50.5t-44 127.5zM526 268q0 -49 19 -76.5t45 -27.5q47 0 94 74t47 168q0 46 -14.5 66t-46.5 20q-39 0 -72 -24t-49 -58q20 -9 20 -23q0 -4 -8 -4q-12 0 -23.5 -38t-11.5 -77z" />
<glyph unicode="&#x26;" horiz-adv-x="909" d="M-53 -25q0 13 10.5 23t24.5 10q22 0 43 -35q14 -23 30 -36q87 -80 244 -80q153 0 263 76t110 200q0 21 -2 33q-92 -45 -215 -45q-181 0 -296.5 97t-115.5 255q0 73 26 133.5t76 108t101.5 80.5t124.5 69q-56 143 -56 240q0 76 29 140t75 104t99.5 62t106.5 22 q93 0 155 -62.5t62 -157.5q0 -33 -9.5 -63.5t-21 -54t-37.5 -49.5t-44.5 -42t-56.5 -40.5t-57.5 -36t-64.5 -37.5l-55 -31q49 -164 96 -285q90 -243 108 -337q95 72 95 200q0 36 -7.5 69t-26.5 58t-48 25q-9 0 -21 -4t-18 -4q-9 0 -16 7t-7 17q0 15 15 25t41 10 q58 0 98.5 -55t40.5 -142q0 -79 -36 -144t-101 -108q6 -27 6 -53q0 -91 -61 -165.5t-160 -115t-213 -40.5q-94 0 -171 27t-124 71q-39 36 -39 61zM199 471q0 -133 80.5 -213t220.5 -80q94 0 162 35q-26 114 -158 365q-70 134 -107 221q-94 -64 -146 -141.5t-52 -186.5z M444 1143q0 -88 35 -228q60 29 96.5 48t83 49t71.5 57t43 65t18 80q0 73 -45.5 119.5t-118.5 46.5q-80 0 -131.5 -58.5t-51.5 -178.5z" />
<glyph unicode="'" horiz-adv-x="450" d="M369 1333q0 63 20.5 133t61.5 70q15 0 28 -9.5t13 -27.5q0 -20 -41 -88q-45 -72 -45 -104q0 -10 -5 -18.5t-12 -8.5q-20 0 -20 53z" />
<glyph unicode="(" horiz-adv-x="575" d="M123 334q0 106 33 239.5t88.5 265.5t131.5 258.5t157.5 223.5t171 156t167.5 59q42 0 77.5 -14t35.5 -29q0 -8 -8 -8q-5 0 -29 6t-39 6q-80 0 -197 -143.5t-218.5 -340t-174.5 -410t-73 -343.5q0 -135 73 -135q18 0 43.5 8t30.5 8q6 0 6 -6q0 -17 -34 -35t-78 -18 q-84 0 -124 69t-40 183z" />
<glyph unicode=")" horiz-adv-x="657" d="M-123 125q0 8 8 8q5 0 29 -6t39 -6q80 0 197 143.5t218.5 340t174.5 410t73 343.5q0 65 -19 100t-54 35q-18 0 -43.5 -8t-30.5 -8q-8 0 -8 8q0 16 35 33.5t79 17.5q78 0 121 -65.5t43 -186.5q0 -106 -33 -239.5t-88.5 -265.5t-131.5 -258.5t-157.5 -223.5t-171 -156 t-167.5 -59q-42 0 -77.5 14t-35.5 29z" />
<glyph unicode="*" horiz-adv-x="804" d="M203 1067q0 16 35 41q57 39 168 68q-93 144 -93 192q0 10 6 10q15 0 48 -22q40 -26 98 -109q33 71 62.5 120.5t39.5 49.5q8 0 13.5 -16t5.5 -39q0 -56 -41 -152q162 44 198 72q4 4 11 4q10 0 10 -14q0 -52 -236 -131q81 -144 113 -164q8 -5 8 -10q0 -3 -7.5 -6t-14.5 -3 q-59 0 -152 119q-67 -125 -67 -159q0 -13 -9 -13q-13 0 -21.5 24t-8.5 46q0 37 34 131q-155 -43 -188 -43q-12 0 -12 4z" />
<glyph unicode="+" d="M164 539q0 29 30 49t76 26q65 13 162 13q99 258 135 258q11 0 23 -17t12 -39q0 -41 -59 -202q272 0 272 -66q0 -16 -13.5 -32t-33.5 -17q-21 0 -41 10q-56 27 -213 27q-104 -279 -104 -311q0 -9 -9 -9q-17 0 -42 26t-25 54q0 50 69 238q-169 -8 -202 -37q-9 -6 -17 -6 q-9 0 -14.5 11t-5.5 24z" />
<glyph unicode="," horiz-adv-x="616" d="M102 94q0 9 6 16t13 7t17.5 -14.5t25.5 -14.5q22 0 39 19t18 47q-26 2 -41.5 17.5t-15.5 41.5q0 32 24 56t56 24q31 0 48 -20.5t17 -55.5q0 -57 -40 -110.5t-103 -53.5q-28 0 -46 11t-18 30z" />
<glyph unicode="-" d="M164 541q0 28 27.5 47.5t70.5 27.5q67 13 234 13q91 0 164.5 -5t114 -13.5t40.5 -18.5q0 -13 -35.5 -44t-56.5 -28q-9 0 -33 6q-90 23 -233 23q-89 0 -161 -10t-95 -27q-9 -6 -17 -6q-9 0 -14.5 11t-5.5 24z" />
<glyph unicode="." horiz-adv-x="514" d="M164 213q0 34 24.5 57t59.5 23q28 0 44.5 -15t16.5 -42q0 -35 -23.5 -58.5t-60.5 -23.5q-28 0 -44.5 15.5t-16.5 43.5z" />
<glyph unicode="/" horiz-adv-x="657" d="M166 131q0 37 121.5 360.5t252.5 633t152 309.5q4 0 10.5 -11.5t11.5 -35t5 -50.5q0 -51 -260 -704q-232 -579 -232 -621q0 -12 -10 -12q-22 0 -36.5 37.5t-14.5 93.5z" />
<glyph unicode="0" horiz-adv-x="1077" d="M100 553q0 48 19 134.5t48.5 175.5t73.5 154.5t87 65.5q7 70 72.5 147.5t168 131t203.5 53.5q65 0 118 -24t88 -64t59.5 -94t35 -111.5t10.5 -117.5q0 -103 -30.5 -222t-88.5 -234t-133.5 -209t-176 -152t-205.5 -58q-107 0 -187.5 59t-121 154.5t-40.5 210.5zM236 502 q0 -136 52.5 -218.5t160.5 -82.5q70 0 134 37t112.5 98.5t90 141.5t70 166.5t49 173.5t30 161t9.5 131q0 111 -42.5 178.5t-137.5 67.5q-123 0 -238 -104t-125 -203q0 -17 -2 -23q23 -26 23 -43q0 -8 -12 -8q-34 0 -74.5 -71t-70 -184t-29.5 -218z" />
<glyph unicode="1" horiz-adv-x="657" d="M123 256q0 105 258 682q176 394 178 444q-76 -12 -178 -78.5t-102 -109.5q0 -13 -10.5 -23t-24.5 -10q-16 0 -29.5 11.5t-13.5 27.5q0 37 70.5 94t158 98.5t133.5 41.5q40 0 67 -34t27 -85q0 -55 -38.5 -173t-80.5 -219.5t-114 -269.5q-92 -212 -140 -336.5t-48 -175.5 q0 -16 -17 -16q-39 0 -67.5 43.5t-28.5 87.5z" />
<glyph unicode="2" horiz-adv-x="1196" d="M37 326q0 55 43.5 85.5t105.5 30.5q52 0 103.5 -20.5t124.5 -61.5q105 63 213 155t199.5 197t149.5 220.5t58 210.5q0 113 -76 178t-208 65q-147 0 -243.5 -78t-96.5 -200q0 -68 -35 -68q-43 0 -43 74q0 131 133.5 225.5t322.5 94.5q180 0 293 -88t113 -226 q0 -99 -63.5 -216.5t-166 -224t-225 -200.5t-245.5 -160q200 -104 385 -104q72 0 138.5 14t69.5 50q1 13 13.5 22.5t27.5 9.5q31 0 31 -39q0 -63 -82.5 -106t-193.5 -43q-62 0 -122 13.5t-120.5 42.5t-99 51t-99.5 61q-159 -78 -262 -78q-65 0 -104 31.5t-39 81.5zM104 332 q0 -29 20 -45.5t54 -16.5q71 0 193 66v-2q-108 67 -178 67q-40 0 -64.5 -19t-24.5 -50z" />
<glyph unicode="3" horiz-adv-x="1134" d="M41 401q0 21 11.5 32t27.5 11q37 0 37 -63q0 -92 76 -146.5t208 -54.5q196 0 330.5 117t134.5 287q0 99 -48.5 155t-135.5 56q-35 0 -92 -11q-50 -8 -74 -8q-47 0 -47 35q0 26 19 47t47 21q14 0 24 -2q45 -5 72 -5q163 0 272 84.5t109 210.5q0 98 -68 154.5t-186 56.5 q-135 0 -225.5 -69t-90.5 -172q0 -34 -11 -51t-28 -17t-31 20.5t-14 57.5q0 76 58.5 141.5t158.5 104.5t216 39q157 0 251.5 -69.5t94.5 -184.5q0 -114 -95 -209t-247 -133q99 -26 154 -99t55 -176q0 -122 -74.5 -222.5t-204.5 -158t-287 -57.5q-181 0 -289 76t-108 202z " />
<glyph unicode="4" horiz-adv-x="1056" d="M43 610q0 33 69.5 112t168.5 174.5t198 193t168.5 184t69.5 129.5q0 15 7.5 24t18.5 9q16 0 28.5 -13.5t12.5 -27.5q0 -42 -132.5 -195.5t-304.5 -336.5t-216 -240v-2q81 -13 139 -13q204 0 439 60q19 45 60.5 138t62.5 142.5t47 114t37.5 103t11.5 59.5q0 41 45 41 q37 0 61.5 -28t24.5 -62q0 -48 -61 -204.5t-133.5 -320.5t-133.5 -321.5t-61 -208.5q0 -39 -33 -39q-37 0 -60.5 41.5t-23.5 107.5q0 81 131 383q-98 -22 -246 -39.5t-241 -17.5q-154 0 -154 53z" />
<glyph unicode="5" horiz-adv-x="1157" d="M41 276q0 23 7.5 35.5t17.5 12.5q22 0 22 -35q0 -44 54 -72.5t173 -28.5q152 0 270.5 47t188.5 141.5t70 223.5q0 124 -63 196t-169 72q-80 0 -160.5 -42t-126 -92t-44.5 -81q0 -16 -19 -16q-26 0 -54 29t-28 77q0 16 113 292t143 339q28 60 62 60q16 0 57 -15 q137 -45 293 -45q137 0 262 47q32 11 37 11q10 0 10 -9q0 -10 -16 -26q-38 -38 -137.5 -61t-223.5 -23q-118 0 -217 18q-16 -45 -90.5 -221.5t-130.5 -298.5q65 58 162 101.5t198 43.5q135 0 218.5 -82t83.5 -215q0 -108 -57.5 -208t-151.5 -171.5t-219 -114t-257 -42.5 q-135 0 -206.5 42.5t-71.5 110.5z" />
<glyph unicode="6" horiz-adv-x="1052" d="M125 618q0 172 57.5 324t157 261t238.5 172t296 63q86 0 135.5 -17.5t49.5 -46.5q0 -15 -14 -26t-37 -11q-32 0 -62 23q-39 31 -115 31q-136 0 -261 -91t-212 -249.5t-114 -350.5q61 97 166.5 155t228.5 58q162 0 260 -97.5t98 -240.5q0 -82 -34 -161.5t-94 -143.5 t-150.5 -103.5t-194.5 -39.5q-189 0 -294 129t-105 362zM233 567q0 -183 72.5 -278.5t200.5 -95.5q100 0 178 56.5t117 141t39 176.5q0 121 -67 202t-187 81q-122 0 -220 -81.5t-133 -201.5z" />
<glyph unicode="7" horiz-adv-x="978" d="M123 221q0 29 36.5 93t119.5 175.5t140 184.5t173 219q174 218 264.5 341t93.5 157q-294 0 -464.5 -21t-170.5 -61q0 -11 -11.5 -18t-29.5 -7t-31.5 8.5t-13.5 22.5q0 54 192 85.5t509 31.5q75 0 103 -31.5t28 -116.5q0 -36 -301 -403q-502 -612 -502 -711 q0 -20 -16.5 -34.5t-40.5 -14.5q-34 0 -56 28t-22 72z" />
<glyph unicode="8" horiz-adv-x="974" d="M39 395q0 110 90 203t299 199q-58 66 -84.5 128t-26.5 134q0 163 112.5 267t287.5 104q130 0 210.5 -59.5t80.5 -156.5q0 -96 -88.5 -184t-296.5 -199q93 -97 132.5 -175t39.5 -164q0 -161 -118 -267t-298 -106q-152 0 -246 76.5t-94 199.5zM115 401q0 -90 74.5 -150.5 t185.5 -60.5q116 0 191 68t75 170q0 78 -46.5 164t-125.5 162q-188 -99 -271 -182t-83 -171zM446 1126q0 -57 31.5 -113t106.5 -136q182 92 260 170t78 167q0 77 -50.5 121.5t-138.5 44.5q-119 0 -203 -73.5t-84 -180.5z" />
<glyph unicode="9" horiz-adv-x="1056" d="M121 182q0 17 14 28t35 11q28 0 63 -24q45 -29 109 -29q139 0 266 90t214 247.5t114 350.5q-62 -98 -168 -155.5t-227 -57.5q-158 0 -258.5 95.5t-100.5 246.5q0 119 64.5 221.5t174.5 163t238 60.5q187 0 291.5 -130t104.5 -362q0 -229 -98.5 -417t-270.5 -295 t-381 -107q-86 0 -135 17t-49 46zM340 989q0 -127 70 -204.5t186 -77.5q120 0 217.5 81t132.5 201q0 183 -71.5 279t-196.5 96q-141 0 -239.5 -109t-98.5 -266z" />
<glyph unicode=":" horiz-adv-x="616" d="M164 213q0 34 24.5 57t59.5 23q28 0 44.5 -15t16.5 -42q0 -35 -23.5 -58.5t-60.5 -23.5q-28 0 -44.5 15.5t-16.5 43.5zM328 686q0 34 24.5 57t59.5 23q28 0 44.5 -15t16.5 -42q0 -35 -23.5 -58.5t-60.5 -23.5q-28 0 -44.5 15.5t-16.5 43.5z" />
<glyph unicode=";" horiz-adv-x="616" d="M102 94q0 9 6 16t13 7t17.5 -14.5t25.5 -14.5q22 0 39 19t18 47q-26 2 -41.5 17.5t-15.5 41.5q0 32 24 56t56 24q31 0 48 -20.5t17 -55.5q0 -57 -40 -110.5t-103 -53.5q-28 0 -46 11t-18 30zM328 686q0 34 24.5 57t59.5 23q28 0 44.5 -15t16.5 -42q0 -35 -23.5 -58.5 t-60.5 -23.5q-28 0 -44.5 15.5t-16.5 43.5z" />
<glyph unicode="&#x3c;" d="M201 590q0 12 12 24.5t25 12.5q19 0 85.5 17t147.5 48q91 34 164.5 72.5t95.5 62.5q23 23 47 23q11 0 17 -6t6 -19q0 -46 -88 -116.5t-242 -118.5q-60 -19 -104 -27q63 -31 129 -53q167 -61 247 -61q33 0 33 -15q0 -4 -2 -10t-9.5 -15t-19 -16t-33.5 -12.5t-50 -5.5 q-71 0 -287 92q-78 33 -126 66.5t-48 56.5z" />
<glyph unicode="=" d="M106 395q0 21 30 39.5t69 24.5q70 12 225 12q93 0 171.5 -7.5t117.5 -17t39 -16.5q0 -9 -35 -38.5t-55 -29.5q-14 0 -39 7q-80 22 -207 22q-82 0 -167 -9t-112 -28q-9 -6 -16 -6q-8 0 -14.5 17.5t-6.5 29.5zM203 662q0 21 29.5 39t68.5 24q70 12 225 12q93 0 171.5 -7.5 t117.5 -17t39 -16.5q0 -9 -35 -38t-55 -29q-18 0 -39 6q-80 22 -207 22q-227 0 -278 -36q-10 -7 -17 -7q-8 0 -14 18t-6 30z" />
<glyph unicode="&#x3e;" d="M203 399q0 46 88 117t241 119q58 18 105 27q-63 31 -129 53q-167 61 -246 61q-33 0 -33 15q0 4 2 10t9.5 15t19.5 16t34 12.5t50 5.5q71 0 287 -92q77 -33 124.5 -66.5t47.5 -56.5q0 -12 -12 -24.5t-25 -12.5q-18 0 -85 -17.5t-149 -48.5q-91 -34 -164.5 -72.5 t-95.5 -62.5q-22 -22 -47 -22q-10 0 -16 6t-6 18z" />
<glyph unicode="?" horiz-adv-x="1155" d="M162 213q0 34 24.5 57t59.5 23q28 0 44.5 -15t16.5 -42q0 -35 -23.5 -58.5t-60.5 -23.5q-28 0 -44.5 15.5t-16.5 43.5zM270 481q0 55 63.5 108t231.5 138q54 27 88 44.5t84.5 47t82 53.5t68.5 58t58 67t35 74.5t14 85.5q0 102 -68 165.5t-206 63.5q-154 0 -252 -77.5 t-98 -200.5q0 -68 -35 -68q-41 0 -41 74q0 86 60 159.5t163.5 117t224.5 43.5q181 0 296.5 -93.5t115.5 -224.5q0 -114 -108.5 -211t-376.5 -221q-187 -87 -259.5 -144t-72.5 -120q0 -21 -10 -21q-17 0 -37.5 23t-20.5 59z" />
<glyph unicode="@" horiz-adv-x="1503" d="M160 438q0 150 60.5 288t162.5 239t243.5 161t295.5 60q225 0 370.5 -117.5t145.5 -292.5q0 -99 -49.5 -204.5t-126.5 -187.5t-176.5 -135.5t-192.5 -53.5q-46 0 -77.5 27.5t-31.5 68.5q0 54 68 213q-59 -62 -121 -104t-106 -42q-37 0 -66 27.5t-29 65.5q0 48 38.5 157.5 t68.5 139.5q40 40 133 40q58 0 103.5 -17.5t62.5 -45.5q11 22 14 31q10 20 25 20q30 0 71 -47t41 -78q0 -37 -71 -176q-68 -129 -68 -172q0 -11 7 -16.5t28 -5.5q76 0 152.5 71.5t125 183t48.5 222.5q0 166 -108.5 270.5t-280.5 104.5q-122 0 -234.5 -56.5t-194 -149.5 t-130 -219t-48.5 -259q0 -224 130 -353t356 -129q91 0 149 31q22 12 45 12q20 0 33.5 -8.5t13.5 -21.5q0 -26 -75.5 -44t-184.5 -18q-289 0 -454.5 134.5t-165.5 385.5zM698 444q52 12 113.5 81.5t114.5 170.5q-47 21 -92 21q-28 0 -78.5 -100t-57.5 -173z" />
<glyph unicode="A" horiz-adv-x="1300" d="M-41 344q0 117 67.5 214.5t181 152.5t247.5 55q87 0 217 -29q69 84 119.5 144.5t120 138.5t124.5 132.5t121.5 111.5t122 91.5t115 56.5t112.5 22q27 0 59.5 -30.5t32.5 -49.5q0 -11 -8 -11q-33 0 -120.5 -101.5t-192 -260.5t-184.5 -313q88 18 104 75q9 37 41 37 q13 0 22 -10t9 -25q0 -13 -6 -28q-18 -41 -74 -69t-123 -36q-106 -217 -106 -327q0 -80 53 -80q65 0 160.5 125t187.5 325q9 21 27 21q24 0 24 -29q-136 -288 -239 -406t-201 -118q-73 0 -121.5 51t-48.5 135q0 112 94 318q-52 11 -190 51q-241 -313 -368 -434t-214 -121 q-68 0 -117 60t-49 161zM25 350q0 -72 29 -118t73 -46q62 0 176 112.5t336 395.5q-105 25 -180 25q-181 0 -307.5 -107t-126.5 -262zM739 719q133 -35 181 -45q73 150 175.5 308t200.5 275q-126 -61 -258.5 -196t-298.5 -342z" />
<glyph unicode="B" horiz-adv-x="1277" d="M-14 303q0 60 33 97.5t77 37.5q35 0 35 -24q0 -21 -27 -21q-30 0 -51.5 -20.5t-21.5 -59.5q0 -38 21 -62t54 -24q74 0 163.5 136t240.5 475q41 93 60.5 134.5t56.5 119.5t60 117.5t54.5 88.5t59 75t53.5 36q-10 2 -47 2q-95 0 -190 -32t-163.5 -81t-111.5 -108.5 t-43 -112.5q0 -23 8 -35q10 -20 10 -34q0 -23 -26 -23q-23 0 -38 19.5t-15 52.5q0 56 45 126.5t121 135.5t194 109.5t248 44.5q212 0 345.5 -107.5t133.5 -265.5q0 -115 -75.5 -204.5t-209.5 -135.5q121 -93 121 -250q0 -153 -117.5 -250.5t-300.5 -97.5q-135 0 -205.5 52.5 t-70.5 137.5q0 75 48 129t91 54q13 0 22 -8.5t9 -20.5q0 -20 -31 -23q-39 -3 -65.5 -35.5t-26.5 -87.5q0 -69 45.5 -111t134.5 -42q77 0 138 32.5t98 86.5t56.5 119t19.5 135q0 104 -48 157q-82 -18 -182 -18q-45 0 -72.5 15t-27.5 44q0 62 121 62q100 0 180 -41 q103 41 161 116.5t58 169.5q0 92 -56.5 169.5t-150.5 119.5q-32 0 -89 -98.5t-189 -384.5q-29 -62 -49 -103.5t-56 -113t-66.5 -122t-71.5 -114t-80 -107t-83 -83t-90.5 -59t-91.5 -19.5q-62 0 -99.5 36t-37.5 97zM709 780q0 -18 53 -18q63 0 135 16q-55 25 -119 25 q-69 0 -69 -23z" />
<glyph unicode="C" horiz-adv-x="1069" d="M102 621q0 155 68 302.5t188 264.5q-67 70 -67 155q0 31 11.5 50.5t31.5 19.5q37 0 37 -37q0 -16 -9 -28q-8 -11 -8 -33q0 -49 37 -96q116 101 255.5 158t285.5 57q135 0 208.5 -46.5t73.5 -119.5q0 -68 -66 -120.5t-166.5 -79t-213.5 -26.5q-168 0 -295 62 q-97 -105 -153 -238.5t-56 -271.5q0 -194 105.5 -305t281.5 -111q133 0 222.5 61.5t89.5 163.5q0 50 -22 88.5t-69 38.5q-13 0 -22 -4t-14 -4q-17 0 -17 19q0 20 16 32.5t44 12.5q58 0 95.5 -54t37.5 -129q0 -125 -109.5 -202.5t-288.5 -77.5q-233 0 -372.5 135.5 t-139.5 362.5zM508 1139q109 -45 256 -45q99 0 191 20.5t151 58t59 80.5q0 38 -47.5 64t-138.5 26q-128 0 -250 -54t-221 -150z" />
<glyph unicode="D" horiz-adv-x="1304" d="M-80 272q0 56 47.5 95t116.5 39q47 0 98 -23q72 123 140 287q152 359 277 527t251 183q-46 4 -90 4q-249 0 -408 -87.5t-159 -223.5q0 -27 6 -39t6 -22q0 -9 -8.5 -16t-20.5 -7q-49 0 -49 78q0 96 83.5 181.5t229.5 137.5t316 52q257 0 402 -119.5t145 -331.5 q0 -144 -69.5 -298t-177 -273.5t-246 -197t-267.5 -77.5q-49 0 -90.5 10.5t-79.5 33.5t-60 40.5t-59 50.5q-107 -104 -211 -104q-55 0 -89 26t-34 74zM-29 285q0 -26 17 -41t39 -15q53 0 129 113q-32 14 -72 14q-47 0 -80 -18t-33 -53zM289 309q42 -36 69.5 -55t71.5 -36 t90 -17q143 0 289 124t240 316.5t94 380.5q0 263 -197 334q-79 -18 -212.5 -225.5t-241.5 -468.5q-90 -221 -203 -353z" />
<glyph unicode="E" horiz-adv-x="909" d="M39 475q0 174 135.5 291t355.5 129q-117 37 -153 160q-144 33 -233 116t-89 191q0 19 11.5 32t25.5 13q12 0 22.5 -11t10.5 -30q0 -8 -3 -27t-3 -28q0 -58 70 -117.5t178 -89.5q0 148 97 238t255 90q112 0 179 -44.5t67 -113.5q0 -98 -128 -166t-313 -68 q10 -49 41.5 -76.5t63 -32.5t57 -12.5t25.5 -21.5q0 -11 -12.5 -23.5t-26.5 -13.5q-219 -12 -347 -112.5t-128 -276.5q0 -143 83 -227t224 -84q127 0 211 65.5t84 165.5q0 56 -23.5 95.5t-58.5 39.5q-8 0 -20 -5t-19 -5q-9 0 -16 7.5t-7 17.5q0 15 14.5 24.5t39.5 9.5 q57 0 94 -51t37 -129q0 -128 -100.5 -203t-270.5 -75q-195 0 -312.5 97.5t-117.5 260.5zM518 1079q100 0 192.5 26t148.5 68.5t56 88.5q0 37 -34.5 57t-96.5 20q-119 0 -192.5 -73t-73.5 -187z" />
<glyph unicode="F" horiz-adv-x="940" d="M-25 387q0 203 135.5 335.5t354.5 139.5q41 106 67 166q96 239 183 326q-169 -10 -307 -57.5t-224 -131.5t-86 -190q0 -26 6.5 -56.5t6.5 -37.5q0 -21 -21 -21q-20 0 -32.5 16.5t-12.5 41.5q0 147 97.5 265t265.5 183.5t372 65.5q133 0 320.5 -39t265.5 -39 q65 0 121.5 13t85.5 30t29 30t16 13q10 0 17 -7t7 -18q0 -41 -85 -73.5t-205 -32.5q-71 0 -228 21t-239 26q-87 -85 -262 -522q145 -50 245 -50q128 0 150 82q11 41 35 41q20 0 20 -28q0 -53 -65.5 -94.5t-153.5 -41.5q-89 0 -250 50q-101 -250 -172.5 -381.5t-137 -186.5 t-147.5 -55q-172 0 -172 217zM29 385q0 -88 27 -122t61 -34q36 0 75 51t96 171.5t158 363.5q-187 -20 -302 -139t-115 -291z" />
<glyph unicode="G" horiz-adv-x="1284" d="M111 578q0 163 79 324.5t213 287.5q-92 79 -92 164q0 36 15.5 58t35.5 22q10 0 17.5 -7.5t7.5 -21.5q0 -7 -4 -23q-6 -18 -6 -36q0 -65 61 -123q116 98 249.5 153.5t266.5 55.5q137 0 212 -54t75 -123q0 -61 -63.5 -108.5t-158.5 -71.5t-198 -24q-164 0 -303 63 q-117 -117 -185.5 -263t-68.5 -292q0 -161 79 -263.5t202 -102.5q114 0 231.5 86.5t184.5 216.5q65 122 65 229q0 41 21 41q29 0 81 -49.5t52 -83.5q0 -36 -8.5 -63t-45.5 -111q-102 -227 -215 -410q80 -11 157 -34.5t145 -56.5t109.5 -79t41.5 -96q0 -25 -8.5 -40 t-22.5 -15q-15 0 -25 13t-10 34q0 44 -36 83.5t-95.5 68.5t-129.5 49t-144 30q-130 -202 -258.5 -319t-231.5 -117q-68 0 -112.5 47.5t-44.5 122.5q0 130 136 217.5t355 99.5q64 102 127 222q-166 -156 -356 -156q-173 0 -285 128t-112 327zM301 -246q0 -41 20 -67.5 t48 -26.5q51 0 139 96t190 252q-172 -15 -284.5 -86t-112.5 -168zM553 1147q119 -53 260 -53q90 0 177.5 20.5t146.5 58t59 80.5q0 38 -46.5 64t-133.5 26q-121 0 -240.5 -52t-222.5 -144z" />
<glyph unicode="H" horiz-adv-x="1228" d="M-53 326q0 131 127 237.5t311 132.5q102 213 215 492q50 128 121 190q-136 -15 -242 -51.5t-171 -86.5t-98.5 -108.5t-33.5 -121.5q0 -33 8 -60q4 -24 4 -35q0 -38 -26 -38q-19 0 -31 18t-12 47q0 224 211 362t555 138q19 0 42 -14.5t23 -24.5q0 -6 -12 -6 q-95 0 -274 -445q-46 -121 -107 -250q144 -6 279 -24q80 176 193.5 351.5t227 294t181.5 118.5q36 0 64 -29.5t28 -50.5q0 -10 -8 -10q-33 0 -120 -101.5t-191.5 -260t-184.5 -312.5q44 6 72 25.5t28 44.5q0 17 10.5 28.5t24.5 11.5q29 0 29 -40q0 -19 -10 -39 q-20 -40 -70 -65t-115 -28q-106 -220 -106 -333q0 -78 45 -78q57 0 163 130.5t193 319.5q9 21 27 21q24 0 24 -29q-135 -288 -238 -406t-198 -118q-74 0 -123 56.5t-49 146.5q0 110 84 309q-172 27 -280 27q-67 -134 -135.5 -232t-127.5 -150t-108 -76t-92 -24 q-59 0 -93 39.5t-34 106.5zM-4 324q0 -42 15 -68.5t38 -26.5q44 0 124 100t192 324q-164 -34 -266.5 -125t-102.5 -204z" />
<glyph unicode="I" horiz-adv-x="692" d="M-188 94q0 52 76.5 90t205.5 52q116 66 305 542q171 427 297 541q-121 0 -199.5 17.5t-78.5 43.5q0 9 11.5 16t29.5 6q1 0 94 -12t195 -12q173 0 277.5 32t104.5 91q0 15 7 24t16 9q11 0 20 -12t9 -33q0 -61 -85.5 -105t-236.5 -59q-38 -16 -81 -77.5t-69.5 -117.5 t-45.5 -106q-115 -304 -224.5 -500t-193.5 -280q113 0 189.5 -18t76.5 -44q0 -7 -7 -13.5t-22 -6.5q-8 0 -42.5 6t-95.5 12t-134 6q-156 0 -243.5 -27t-90.5 -75q-3 -31 -31 -31q-14 0 -24 11t-10 30z" />
<glyph unicode="J" horiz-adv-x="813" d="M-342 -274q0 144 141 236.5t365 92.5q295 483 639 1321q-168 -12 -326 -78.5t-253 -158.5t-95 -178q0 -27 10 -54q6 -15 6 -24q0 -23 -24 -23q-22 0 -36.5 20t-14.5 66q0 89 64.5 178t169.5 157t248 110.5t290 42.5q51 0 94 -44t43 -96q0 -37 -8 -63t-41 -98 q-319 -695 -598 -1094q144 -23 252.5 -81t150.5 -132q23 -41 23 -70q0 -15 -9.5 -25t-23.5 -10q-23 0 -23 31q0 71 -118 149t-281 99q-152 -210 -281.5 -323t-224.5 -113q-61 0 -100 43.5t-39 118.5zM-279 -254q0 -41 17.5 -63.5t48.5 -22.5q122 0 344 350 q-188 -13 -299 -85.5t-111 -178.5z" />
<glyph unicode="K" horiz-adv-x="1204" d="M-6 317q0 99 101 196.5t304 188.5q44 123 154 369.5t160 294.5q-221 -40 -375 -150t-154 -227q0 -17 4.5 -46t4.5 -38q0 -28 -25 -31q-25 -2 -39 20.5t-14 63.5q0 84 65 170.5t169.5 154.5t247 111.5t286.5 43.5q19 0 42 -14.5t23 -24.5q0 -6 -12 -6q-100 0 -295 -496 q-13 -35 -47 -119q204 82 394 200.5t305.5 233t115.5 185.5q0 20 9 32.5t24 12.5q14 0 22.5 -11.5t8.5 -31.5q0 -79 -128.5 -209t-326.5 -258t-389 -201q-30 -10 -60 -22q32 -87 80 -165.5t113 -146t151.5 -107.5t182.5 -40q74 0 125 22.5t51 55.5q0 10 6 10q12 0 22.5 -16 t10.5 -37q0 -54 -60 -88.5t-151 -34.5q-97 0 -192.5 43t-169.5 111t-128.5 152.5t-77.5 168.5q-218 -463 -403 -463q-59 0 -97 39.5t-38 103.5zM39 317q0 -37 17.5 -62.5t43.5 -25.5q41 0 99 83.5t157 301.5q-317 -153 -317 -297z" />
<glyph unicode="L" horiz-adv-x="780" d="M-170 1014q0 17 9 27t24 10q13 0 22 -9.5t9 -22.5q0 -27 53 -51q54 -24 135.5 -36t169.5 -12q80 0 190 10q255 502 492 502q70 0 108.5 -39.5t38.5 -110.5q0 -132 -127.5 -233.5t-351.5 -147.5q-67 -121 -115 -239q-85 -206 -182 -330q142 -78 250.5 -113t206.5 -35 q94 0 159.5 25.5t65.5 64.5q0 15 11 26t28 11q29 0 29 -35q0 -68 -87 -112.5t-208 -44.5q-104 0 -218.5 40t-275.5 134q-113 -125 -223 -125q-50 0 -80.5 26.5t-30.5 73.5q0 58 44 95.5t110 37.5q43 0 96 -16q33 56 108 215.5t124 276.5q-89 -7 -154 -7q-191 0 -310.5 41.5 t-119.5 102.5zM-12 283q0 -26 13 -41t32 -15q52 0 127 117q-47 14 -78 14q-44 0 -69 -20t-25 -55zM635 963q185 46 289 131.5t104 193.5q0 64 -39 64q-54 0 -153.5 -109t-200.5 -280z" />
<glyph unicode="M" horiz-adv-x="1484" d="M-111 256q0 60 39 110t86 50q19 0 29 -8.5t10 -20.5q0 -14 -10 -24.5t-31 -10.5q-31 0 -51 -23.5t-20 -64.5q0 -42 21.5 -62t55.5 -20q59 0 121.5 69t117 179.5t109 244t107.5 267t103 244t103 179.5t101 69q35 0 62.5 -28.5t27.5 -49.5q0 -10 -10 -10q-42 0 -74.5 -152 t-45.5 -326t-13 -311q48 96 130 232t186 286.5t210.5 254.5t176.5 104q40 0 72 -30.5t32 -51.5q0 -11 -8 -11q-48 0 -141.5 -203.5t-168.5 -457t-75 -381.5q0 -96 47 -96q54 0 159.5 131t192.5 319q9 21 27 21q24 0 24 -29q-136 -288 -239 -406t-201 -118q-75 0 -122.5 56.5 t-47.5 164.5q0 143 76 415t176 462q-70 -71 -146 -179.5t-135 -211t-109 -195.5t-83 -150t-43 -57q-61 0 -95 92t-34 258q0 202 45 387q-37 -77 -88 -202t-92 -230.5t-94.5 -222t-102.5 -197t-109.5 -133.5t-121.5 -53q-53 0 -94.5 34.5t-41.5 96.5z" />
<glyph unicode="N" horiz-adv-x="1226" d="M-106 313q0 62 33 105t77 43q23 0 35 -11.5t12 -25.5q0 -13 -9 -21t-26 -8q-31 0 -52 -25t-21 -63q0 -37 21 -59.5t56 -22.5q56 0 116 66.5t114 173.5t109.5 236t109 257.5t104 235.5t103.5 173.5t100 66.5q33 0 63.5 -26.5t30.5 -53.5q0 -11 -6 -11q-28 0 -28 -161 q0 -182 30 -475.5t58 -417.5q26 76 53.5 152.5t74 195.5t90.5 221.5t99 212.5t104 187.5t101.5 127.5t95.5 50q19 0 30 -9t11 -24q0 -12 -9 -21.5t-28 -9.5q-52 0 -119.5 -89.5t-130.5 -223.5t-127.5 -290t-113.5 -290t-86.5 -223.5t-48.5 -89.5q-60 0 -115 121t-88 319.5 t-33 413.5q0 178 12 262q-52 -76 -118 -226.5t-125 -295t-125.5 -283.5t-144 -225t-156.5 -86q-58 0 -95.5 41t-37.5 106z" />
<glyph unicode="O" horiz-adv-x="1392" d="M100 621q0 156 67.5 304t186.5 265q-67 64 -67 143q0 38 14.5 58t32.5 20q31 0 31 -61q0 -68 38 -117q111 94 244.5 147.5t267.5 53.5q132 0 211.5 -51t79.5 -132q49 -47 80 -135.5t31 -214.5q0 -163 -54 -308t-148 -248.5t-225 -163.5t-280 -60q-232 0 -371 136.5 t-139 363.5zM260 594q0 -192 104.5 -290.5t288.5 -98.5q175 0 313 88t214.5 245.5t76.5 358.5q0 208 -75 305q-47 -66 -161.5 -106.5t-252.5 -40.5q-164 0 -293 55q-100 -106 -157.5 -241t-57.5 -275zM510 1147q105 -51 258 -51q135 0 248 39t139 94q-23 20 -49 20 q-8 0 -17.5 -4t-17.5 -4q-24 0 -24 25q0 15 15.5 26t39.5 11q18 0 47 -11q-40 54 -172 54q-126 0 -247 -53t-220 -146z" />
<glyph unicode="P" horiz-adv-x="1222" d="M-57 301q0 60 38.5 104t84.5 44q19 0 31 -9t12 -22q0 -25 -35 -25q-34 0 -56 -23.5t-22 -62.5q0 -37 18.5 -60.5t46.5 -23.5q56 0 134.5 125.5t193.5 396.5q126 299 219.5 444t190.5 187q-103 0 -204 -22.5t-181 -61t-142.5 -86.5t-96.5 -100.5t-34 -101.5q0 -14 4.5 -43 t4.5 -43q0 -56 -39 -56q-41 0 -41 68q0 85 53.5 174t145 161.5t226 118.5t283.5 46q238 0 383.5 -109t145.5 -274q0 -119 -81.5 -213.5t-214.5 -144.5t-290 -50q-93 0 -205 23q-114 -254 -224.5 -374t-211.5 -120q-60 0 -98.5 37.5t-38.5 95.5zM532 700q80 -18 156 -18 q198 0 326.5 117t128.5 311q0 103 -41.5 165.5t-134.5 88.5q-66 0 -188.5 -183t-225.5 -433q-12 -27 -21 -48z" />
<glyph unicode="Q" horiz-adv-x="1374" d="M100 621q0 156 67.5 304t186.5 265q-67 64 -67 143q0 34 13.5 56t33.5 22q31 0 31 -61q0 -70 38 -119q111 94 245.5 147.5t271.5 53.5q132 0 209 -48t77 -135q49 -47 80 -135.5t31 -214.5q0 -254 -124 -451t-329 -280q147 -136 293 -214.5t266 -78.5q74 0 133 27.5 t62 70.5q0 15 9 24t22 9q26 0 26 -37q0 -67 -82 -112t-186 -45q-136 0 -299 87.5t-328 241.5q-76 -20 -166 -20q-234 0 -374 136t-140 364zM266 596q0 -119 41 -203q48 33 113 33q79 0 161.5 -44.5t219.5 -162.5q209 51 335 234t126 442q0 207 -76 305q-46 -65 -158.5 -104 t-253.5 -39q-164 0 -293 55q-100 -106 -157.5 -241t-57.5 -275zM328 352q102 -147 338 -147q39 0 49 2q-117 106 -175 141t-116 35q-62 0 -96 -31zM516 1149q105 -51 258 -51q136 0 248.5 38.5t138.5 94.5q-23 20 -49 20q-10 0 -22 -4t-19 -4q-8 0 -13 7.5t-5 17.5 q0 15 15.5 26t39.5 11q18 0 47 -11q-40 54 -172 54q-126 0 -247 -53t-220 -146z" />
<glyph unicode="R" horiz-adv-x="1263" d="M-57 301q0 57 38 102.5t85 45.5q19 0 31 -9t12 -22q0 -25 -35 -25t-56.5 -24t-21.5 -62q0 -37 18.5 -60.5t46.5 -23.5q56 0 134.5 125.5t193.5 396.5q126 299 219.5 444t190.5 187q-169 0 -324.5 -59t-244.5 -144.5t-89 -166.5q0 -14 5.5 -43t5.5 -45q0 -25 -11 -40.5 t-30 -15.5q-41 0 -41 78q0 65 33.5 134t97.5 132.5t149 113.5t197 80t231 30q238 0 383.5 -109t145.5 -274q0 -120 -81.5 -214t-215.5 -144t-293 -50q-99 0 -189 20q22 -185 163 -299t343 -114q89 0 145 22t56 56q0 10 4 10q7 0 19 -23t12 -41q0 -46 -81.5 -82t-184.5 -36 q-182 0 -327.5 124.5t-189.5 323.5q-106 -222 -209.5 -327t-197.5 -105q-60 0 -98.5 37.5t-38.5 95.5zM532 700q80 -18 156 -18q198 0 326.5 117t128.5 311q0 103 -41.5 165.5t-134.5 88.5q-66 0 -188.5 -183t-225.5 -433q-12 -27 -21 -48z" />
<glyph unicode="S" horiz-adv-x="819" d="M-16 410q0 69 34 119.5t80 50.5q18 0 27.5 -7.5t9.5 -17.5q0 -9 -8 -18t-23 -9q-31 0 -55 -34.5t-24 -81.5q0 -82 75 -132.5t195 -50.5q129 0 193.5 60.5t64.5 161.5q0 48 -17 104.5t-34.5 94t-52.5 104.5q-38 70 -57.5 110.5t-38.5 105.5t-19 122q-118 41 -190 112 t-72 146q0 27 9.5 43t24.5 16q29 0 29 -55q0 -69 54 -129t149 -95q26 128 141 216t254 88q106 0 181 -52.5t75 -126.5q0 -89 -113.5 -146.5t-279.5 -57.5q-50 0 -100 6q0 -45 17.5 -96.5t36.5 -86t54 -92.5q37 -59 57 -96t39 -93t19 -106q0 -140 -112.5 -228.5t-289.5 -88.5 q-150 0 -241.5 66t-91.5 174zM494 1096q50 -4 86 -4q149 0 251.5 47.5t102.5 115.5q0 42 -41.5 65t-108.5 23q-122 0 -198.5 -73.5t-91.5 -173.5z" />
<glyph unicode="T" horiz-adv-x="755" d="M25 985q0 134 90 237t253.5 159.5t376.5 56.5q164 0 353 -39q178 -31 268 -31q112 0 176 25.5t64 58.5q0 12 6.5 19.5t17.5 7.5q12 0 19.5 -9.5t7.5 -21.5q0 -48 -86.5 -85.5t-202.5 -37.5q-72 0 -229 23q-98 16 -168 24q-40 -32 -96.5 -134t-112.5 -241 q-168 -420 -303.5 -623.5t-249.5 -203.5q-54 0 -91.5 38.5t-37.5 96.5q0 61 38.5 105.5t84.5 44.5q19 0 31 -9t12 -22q0 -25 -35 -25q-36 0 -58 -23.5t-22 -62.5q0 -37 20.5 -60.5t55.5 -23.5q23 0 43 14t43 47t55.5 104.5t72 167.5t101.5 255q90 226 172 381.5t129 185.5 q-78 5 -106 5q-292 0 -454.5 -105.5t-162.5 -279.5q0 -27 9 -48q4 -8 4 -20q0 -18 -14.5 -28.5t-30.5 -10.5q-43 0 -43 88z" />
<glyph unicode="U" horiz-adv-x="1263" d="M104 373q0 100 35.5 213t89 209t115.5 191.5t115.5 165.5t89 127t35.5 81q0 35 -76 35q-107 0 -197 -54.5t-90 -126.5q0 -15 5 -33.5t5 -23.5q0 -10 -10 -18.5t-22 -8.5q-15 0 -29 16t-14 54q0 97 100.5 164.5t239.5 67.5q172 0 172 -103q0 -48 -44 -142t-106.5 -206 t-125 -233t-106.5 -252.5t-44 -233.5q0 -26 15.5 -41.5t41.5 -15.5q80 0 220.5 132.5t286 325t277 396t211.5 358.5q6 15 19 15q29 0 70.5 -45.5t41.5 -69.5q0 -19 -52 -107t-126.5 -210t-149.5 -253.5t-127 -262t-52 -212.5q0 -71 32 -71q49 0 170.5 151t202.5 301 q10 17 27 17q21 0 24 -25q-54 -89 -89 -144t-81 -123t-80 -108.5t-72.5 -78t-74.5 -54t-70 -16.5q-62 0 -99.5 54.5t-37.5 146.5q0 110 55 251q-348 -454 -546 -454q-82 0 -128.5 67t-46.5 187z" />
<glyph unicode="V" horiz-adv-x="1060" d="M123 375q0 100 35.5 213t89 209t116 192t116 167t89 129.5t35.5 84.5q0 35 -74 35q-107 0 -197.5 -54t-90.5 -124q0 -16 6 -34t6 -24q0 -15 -11.5 -21.5t-21.5 -6.5q-15 0 -29 15.5t-14 53.5q0 97 100.5 164.5t239.5 67.5q170 0 170 -105q0 -50 -44 -145t-106.5 -208 t-125 -234t-106.5 -252.5t-44 -233.5q0 -55 45 -55q151 0 662 729q236 339 366 469.5t248 130.5q51 0 87 -19.5t36 -48.5q0 -13 -8.5 -20.5t-20.5 -7.5q-13 0 -55.5 16.5t-75.5 16.5q-65 0 -143.5 -74t-239.5 -291q-80 -108 -184 -254.5t-169 -239t-145 -196.5 t-137.5 -162.5t-120 -97.5t-116.5 -39q-77 0 -122.5 67.5t-45.5 186.5z" />
<glyph unicode="W" horiz-adv-x="1687" d="M121 369q0 100 35.5 213.5t89 209.5t116 192t116 167.5t89 130t35.5 84.5q0 39 -76 39q-107 0 -197.5 -53.5t-90.5 -122.5q0 -15 6 -30.5t6 -22.5q0 -15 -8.5 -24t-20.5 -9q-17 0 -31 15.5t-14 53.5q0 97 100.5 164.5t239.5 67.5q172 0 172 -107q0 -51 -44 -147 t-106.5 -209t-125 -234.5t-106.5 -253t-44 -233.5q0 -55 43 -55q60 0 177.5 135t303.5 418q124 189 219.5 303.5t127.5 114.5q16 0 16 -25q0 -34 -40.5 -140t-89.5 -223t-89.5 -266.5t-40.5 -259.5q0 -55 45 -55q150 0 661 729q221 316 368.5 458t254.5 142q44 0 78.5 -20 t34.5 -48q0 -12 -8.5 -19t-22.5 -7t-42 15.5t-54 15.5q-142 0 -422 -377q-70 -95 -157 -218t-146.5 -207.5t-129.5 -180.5t-123.5 -158t-109.5 -116t-106 -79.5t-97 -25.5q-76 0 -122 65t-46 174q0 148 86 352q-221 -342 -333.5 -464.5t-206.5 -122.5q-79 0 -124.5 67.5 t-45.5 186.5z" />
<glyph unicode="X" horiz-adv-x="1069" d="M-115 303q0 61 38.5 105.5t84.5 44.5q19 0 31 -9t12 -22q0 -25 -35 -25q-36 0 -57.5 -23.5t-21.5 -62.5q0 -38 21.5 -63t57.5 -25q32 0 72.5 20t92.5 63.5t99.5 88t115 119t116 130t125.5 144.5q-114 240 -178 394t-64 211q0 34 27 34q34 0 102 -32.5t68 -51.5 q0 -6 -6 -6t-6 -10q0 -43 153 -426q108 126 185.5 211t167 171t160.5 129.5t124 43.5q26 0 41.5 -10t15.5 -23q0 -14 -15 -26.5t-44 -12.5q-36 0 -79.5 -19.5t-95 -61t-98 -85t-110.5 -114.5t-111 -126t-118 -140q205 -512 205 -584q0 -30 -20 -65t-32 -35q-4 0 -4 8 q0 32 -66 187t-175 378q-85 -101 -145 -170t-137 -149t-135.5 -127.5t-119.5 -80t-109 -32.5q-58 0 -95.5 38t-37.5 97z" />
<glyph unicode="Y" horiz-adv-x="1288" d="M106 -272q0 143 137.5 236t356.5 93q130 197 309 523q-145 -203 -268.5 -295t-237.5 -92t-180.5 78.5t-66.5 213.5q0 108 47 229t113.5 221t133 188t113.5 155.5t47 97.5q0 35 -73 35q-107 0 -198 -53.5t-91 -122.5q0 -14 6 -28t6 -23q0 -19 -11.5 -27t-21.5 -8 q-15 0 -29 16t-14 54q0 97 100 164t240 67q170 0 170 -109q0 -51 -41 -139t-99 -186t-116.5 -200.5t-99.5 -209t-41 -184.5q0 -71 32 -108.5t93 -37.5q132 0 299.5 167.5t312.5 424.5t228 525q12 39 30 39q29 0 81 -50t52 -84q0 -38 -6 -60.5t-30 -76.5 q-123 -272 -283.5 -574.5t-325.5 -541.5q142 -23 251.5 -81t150.5 -132q22 -39 22 -70q0 -15 -9.5 -24.5t-23.5 -9.5q-22 0 -22 30q0 71 -117.5 149t-279.5 99q-308 -436 -506 -436q-64 0 -102 42t-38 116zM168 -254q0 -40 16 -63t41 -23q52 0 140 91t200 257 q-182 -15 -289.5 -86t-107.5 -176z" />
<glyph unicode="Z" horiz-adv-x="933" d="M-6 229q0 68 109 221t264 317t334 320t309 232q-108 -12 -238 -12q-633 0 -633 96q0 13 11 22t26 9q28 0 53 -25q31 -28 119 -39.5t297 -11.5q151 0 280 17t199 50q28 11 39 11q25 0 48.5 -22.5t23.5 -45.5q0 -22 -43 -37q-88 -29 -199 -127.5t-219 -228t-209 -259 t-198.5 -247.5t-157.5 -168q123 -6 241 -30t202 -54t152 -59.5t116 -49.5t69 -20q16 0 36 14.5t34 14.5q12 0 19 -7t7 -18q0 -21 -21 -35t-52 -14q-38 0 -130.5 30t-190 66.5t-225.5 66.5t-230 30q-108 0 -181 -31q-20 -10 -32 -10q-29 0 -29 34z" />
<glyph unicode="[" horiz-adv-x="458" d="M41 166q0 44 128 379.5t262.5 653t152.5 317.5q109 0 176 -10t67 -25q0 -13 -51.5 -18.5t-105 -9.5t-56.5 -13q-9 -28 -130 -337t-233 -607.5t-112 -337.5q0 -6 106.5 -15t106.5 -26q0 -15 -67.5 -25t-175.5 -10q-68 0 -68 84z" />
<glyph unicode="\" horiz-adv-x="1044" d="M246 1337q0 27 5 50.5t11 35t10 11.5q21 0 152 -309.5t253 -633t122 -360.5q0 -56 -14.5 -93.5t-36.5 -37.5q-11 0 -11 12q0 34 -122.5 345t-245.5 625.5t-123 354.5z" />
<glyph unicode="]" horiz-adv-x="520" d="M-184 117q0 13 51.5 18.5t105 9.5t56.5 13q9 28 130 337t233 607.5t112 337.5q0 6 -106.5 15t-106.5 26q0 15 68 25t176 10q67 0 67 -84q0 -44 -128 -379.5t-262.5 -653t-152.5 -317.5q-109 0 -176 10t-67 25z" />
<glyph unicode="^" d="M279 877q0 25 22 47q45 42 115.5 221.5t70.5 238.5q0 22 12 36t25 14q36 0 89 -102t89.5 -213.5t36.5 -149.5q0 -28 -5.5 -50t-12.5 -34t-16 -19.5t-15 -9.5t-10 -2q-14 0 -14 33q0 56 -36.5 174t-78.5 203q-14 -80 -50.5 -172.5t-90.5 -165t-103 -72.5q-28 0 -28 23z " />
<glyph unicode="_" horiz-adv-x="1019" d="M123 61q0 21 29.5 39.5t68.5 24.5q70 12 225 12q93 0 171.5 -7.5t117.5 -17t39 -16.5q0 -8 -33.5 -39t-44.5 -30q-19 2 -52.5 10t-80.5 14t-117 6q-234 0 -286 -37q-9 -6 -17 -6t-14 17.5t-6 29.5z" />
<glyph unicode="a" horiz-adv-x="669" d="M-20 438q0 47 37.5 156t66.5 139q41 41 135 41q57 0 102 -16.5t62 -44.5q12 24 14 30q11 21 25 21q30 0 70 -48t40 -81q0 -32 -63 -158q-74 -144 -74 -186q0 -23 17 -23q39 0 141.5 119.5t183.5 282.5q9 18 31 18q23 0 23 -24q-107 -220 -229 -350t-220 -130 q-47 0 -78 28t-31 69q0 55 66 206q-59 -61 -120 -101t-105 -40q-37 0 -65.5 27t-28.5 65zM141 432q52 12 113.5 81.5t114.5 170.5q-47 21 -90 21q-28 0 -78.5 -99.5t-59.5 -173.5z" />
<glyph unicode="b" horiz-adv-x="677" d="M-55 195q0 57 55.5 98t163.5 41q61 0 121 14q59 166 84 332q-85 -65 -140.5 -133.5t-87.5 -171.5q-6 -15 -20 -15q-31 0 -71 49.5t-40 86.5q0 35 9 62t47 112q109 242 237 439.5t252.5 314t216.5 116.5q54 0 95.5 -35.5t41.5 -81.5q0 -80 -139.5 -205.5t-382.5 -269.5 q-125 -209 -190 -379q54 70 124 126.5t111 56.5q35 0 76 -35t41 -66q0 -109 -49 -223q156 90 254 246q10 16 26 16q23 0 23 -22q0 -6 -10 -21q-122 -198 -336 -293q-69 -122 -170.5 -200t-198.5 -78q-66 0 -104.5 35t-38.5 84zM6 195q0 -29 24.5 -50.5t61.5 -21.5 q99 0 172 172q-40 -6 -78 -6q-91 0 -135.5 -28t-44.5 -66zM444 1042q180 120 293 221t113 152q0 15 -9 24t-24 9q-58 0 -160 -115t-213 -291z" />
<glyph unicode="c" horiz-adv-x="577" d="M-27 502q0 119 79 204t192 85q83 0 134.5 -46.5t51.5 -109.5q0 -29 -12 -29q-5 0 -20.5 19t-42 38t-58.5 19q-65 0 -110.5 -64t-45.5 -155q0 -125 97 -125q85 0 201 89t204 245q10 16 33 16q22 0 22 -16q0 -12 -10 -29q-119 -196 -248 -282.5t-243 -86.5q-100 0 -162 63 t-62 165z" />
<glyph unicode="d" horiz-adv-x="714" d="M-27 428q0 28 32.5 137t49.5 140q16 31 55 47t83 16q41 0 92.5 -11.5t79.5 -33.5q93 190 219 375t254 310.5t206 125.5q45 0 85 -36t40 -81q0 -75 -123 -190t-341 -250q-133 -212 -222.5 -405.5t-89.5 -295.5q0 -75 45 -75q55 0 151 124.5t185 317.5q9 21 27 21 q24 0 24 -27q-93 -198 -166.5 -311.5t-132.5 -159t-123 -45.5q-73 0 -121.5 52t-48.5 140q0 60 25 146q-114 -103 -182 -103q-34 0 -68.5 22.5t-34.5 49.5zM139 432q77 17 168 154q4 10 47 104q-34 15 -59 15q-34 0 -70 -45t-59.5 -108.5t-26.5 -119.5zM778 1083 q151 104 243.5 193.5t92.5 138.5q0 27 -20 27q-34 0 -122 -101t-194 -258z" />
<glyph unicode="e" horiz-adv-x="577" d="M-25 508q0 120 80 199t201 79q78 0 132 -31t54 -75t-55.5 -88.5t-127 -71t-126.5 -28.5q0 -70 29 -110t82 -40q83 0 197 88.5t202 245.5q10 16 33 16q22 0 22 -16q0 -10 -22 -49q-58 -94 -122.5 -164t-127 -109t-118.5 -57t-109 -18q-100 0 -162 61.5t-62 167.5zM133 522 q67 11 147 53.5t80 71.5q0 15 -20 24t-47 9q-59 0 -103.5 -44t-56.5 -114z" />
<glyph unicode="f" horiz-adv-x="440" d="M-190 -55q0 110 47.5 274.5t125 339.5t179.5 352t206.5 316t212 226t189.5 87q52 0 85.5 -30.5t33.5 -73.5q0 -83 -124.5 -201.5t-346.5 -253.5q-112 -192 -217 -410q23 -10 57 -10q68 0 145 38.5t107 86.5q11 19 20 19q19 0 19 -23q0 -33 -46.5 -71.5t-126 -66.5 t-161.5 -28q12 -40 12 -119q0 -95 -14.5 -208.5t-42.5 -227t-79 -189t-114 -75.5t-115 62.5t-52 185.5zM-35 -137q0 -90 41 -90q44 0 84.5 114t62 253.5t21.5 240.5q0 67 -14 102q-195 -431 -195 -620zM479 1079q158 107 254 197.5t96 138.5q0 14 -8.5 22.5t-21.5 8.5 q-45 0 -131 -100.5t-189 -266.5z" />
<glyph unicode="g" horiz-adv-x="669" d="M-385 -295q0 97 115.5 197t429.5 274q121 204 184 371q-62 -79 -139 -139t-137 -60q-35 0 -63 20t-28 50q0 34 32.5 145t51.5 146q18 33 57.5 52t80.5 19q45 0 104 -17t80 -46q11 22 14 31q10 20 25 20q30 0 70 -47.5t40 -79.5q0 -31 -39 -136.5t-65 -150.5 q91 70 171.5 151.5t121.5 143.5q25 43 49 43q21 0 21 -16q0 -6 -21 -41q-59 -96 -160 -196t-229 -185q-160 -300 -333 -484t-314 -184q-57 0 -88 31t-31 88zM-303 -285q0 -41 35 -41q58 0 159.5 115.5t212.5 292.5q-229 -147 -318 -228t-89 -139zM141 434q52 10 114 81 t116 173q-35 21 -62 21q-39 0 -78.5 -42t-64.5 -106.5t-25 -126.5z" />
<glyph unicode="h" horiz-adv-x="669" d="M-4 494q0 36 8.5 63.5t46.5 110.5q109 242 237 440t252.5 314t215.5 116q54 0 95.5 -35.5t41.5 -81.5q0 -80 -141.5 -206.5t-384.5 -270.5q-128 -213 -191 -379q54 70 124.5 126.5t111.5 56.5q35 0 75.5 -35t40.5 -66q0 -44 -116 -276q-121 -245 -121 -289q0 -21 12 -21 q29 0 147 167.5t283 441.5q10 16 27 16q9 0 16.5 -4t7.5 -8q0 -14 -64.5 -125.5t-148.5 -242t-173 -236t-130 -105.5q-35 0 -86 52.5t-51 103.5q0 32 82 237.5t131 309.5q-80 -63 -133 -129.5t-84 -165.5q-6 -15 -21 -15q-31 0 -70.5 49.5t-39.5 86.5zM428 1040 q180 119 293 220t113 153q0 15 -9 24t-24 9q-57 0 -160 -116t-213 -290z" />
<glyph unicode="i" horiz-adv-x="428" d="M-20 416q0 26 54 167.5t54 161.5q0 19 21 19q33 0 74.5 -48t41.5 -83q0 -27 -60.5 -144.5t-60.5 -152.5q0 -25 19 -25q38 0 156 107t215 256q10 16 28 16q25 0 25 -16q0 -22 -51 -91.5t-119.5 -144.5t-146 -133.5t-124.5 -58.5q-46 0 -86 53.5t-40 116.5zM141 901 q0 46 34 78.5t81 32.5q38 0 61 -21.5t23 -58.5q0 -48 -33 -80.5t-82 -32.5q-38 0 -61 22t-23 60z" />
<glyph unicode="j" horiz-adv-x="364" d="M-682 -399q0 58 100 152t260 200q100 67 109 74q121 212 207 415t86 289q0 37 20 37q31 0 82 -53.5t51 -102.5q0 -20 -10 -48t-43 -101q-39 -88 -90 -189q215 200 332 383q20 33 41 33q22 0 22 -26q-197 -315 -471 -537q-155 -286 -302 -462.5t-257 -176.5q-53 0 -95 36 t-42 77zM-606 -399q0 -23 26 -23q45 0 126 93t173 243q-145 -103 -235 -189t-90 -124zM145 903q0 47 32.5 78t80.5 31q40 0 63 -21.5t23 -58.5q0 -46 -34 -78.5t-81 -32.5q-38 0 -61 22t-23 60z" />
<glyph unicode="k" horiz-adv-x="669" d="M-8 492q0 36 8.5 63.5t46.5 110.5q109 242 237 440t252.5 314t215.5 116q54 0 95.5 -35.5t41.5 -81.5q0 -80 -139.5 -205.5t-382.5 -269.5q-121 -204 -187 -364q51 68 115.5 119t107.5 51q41 0 82 -37t41 -76q0 -42 -52 -75.5t-124 -33.5q64 -30 64 -118q0 -58 -30 -130 t-59.5 -127.5t-29.5 -72.5t12 -17q11 0 37.5 25.5t68 77.5t90 123t109 171t121.5 212q10 16 27 16q24 0 24 -10q0 -13 -64.5 -126.5t-149.5 -247.5t-177 -242.5t-137 -108.5q-36 0 -80.5 55.5t-44.5 106.5q0 12 31.5 70t63.5 143t32 161q0 51 -14 62q-4 4 -4 8q0 16 18 16 q7 0 18.5 -5t18.5 -5q32 0 83.5 42t51.5 71q0 20 -27 20q-56 0 -148.5 -101.5t-131.5 -225.5q-6 -15 -21 -15q-31 0 -70.5 49.5t-39.5 86.5zM428 1040q180 119 293 220t113 153q0 15 -9 24t-24 9q-57 0 -160 -116t-213 -290z" />
<glyph unicode="l" horiz-adv-x="419" d="M-59 322q0 81 42 206t109 258.5t154.5 269t175 242t174.5 173.5t149 67q50 0 91 -36t41 -81q0 -75 -123.5 -190t-341.5 -250q-133 -212 -222.5 -405t-89.5 -295q0 -76 45 -76q55 0 151 124.5t185 317.5q9 21 27 21q24 0 24 -27q-93 -198 -166 -311.5t-132 -159 t-123 -45.5q-73 0 -121.5 53t-48.5 144zM485 1087q151 104 243.5 193.5t92.5 138.5q0 27 -20 27q-34 0 -122 -101t-194 -258z" />
<glyph unicode="m" horiz-adv-x="935" d="M-4 471q0 25 27 126q26 97 26 119q0 23 35 23q36 0 77.5 -16t41.5 -31q0 -5 -6 -28t-16 -60.5t-17 -66.5q54 77 129.5 144t118.5 67q24 0 41.5 -18.5t17.5 -33.5q0 -6 -6 -29t-16.5 -61.5t-16.5 -66.5q54 77 130 144t120 67q36 0 76.5 -37t40.5 -72q0 -32 -68.5 -172.5 t-68.5 -177.5q0 -23 16 -23t45.5 28.5t81 96.5t89 120t112.5 159q13 16 28 16q23 0 23 -24q-151 -243 -252.5 -363.5t-177.5 -120.5q-48 0 -89.5 42t-41.5 85q0 42 41.5 162.5t74.5 192.5q-157 -129 -213 -308q-40 2 -87.5 38t-47.5 75q0 22 17.5 61.5t41.5 84t29 57.5 q-79 -64 -134.5 -138.5t-88.5 -179.5q-39 2 -86 39t-47 80z" />
<glyph unicode="n" horiz-adv-x="669" d="M0 473q0 26 26.5 127t26.5 119q0 22 35 22q36 0 76.5 -16t40.5 -31q0 -5 -5.5 -28t-15.5 -63.5t-16 -65.5q53 75 128.5 140.5t119.5 65.5q36 0 76 -36.5t40 -71.5q0 -32 -68.5 -172.5t-68.5 -177.5q0 -23 17 -23q32 0 122.5 114t204.5 290q10 16 27 16q22 0 22 -25 q-152 -245 -253 -362t-185 -117q-49 0 -84 36.5t-35 80.5q0 47 41.5 170t75.5 197q-157 -129 -213 -308q-41 2 -88 39t-47 80z" />
<glyph unicode="o" horiz-adv-x="557" d="M31 461q0 110 34 198.5t78 88.5q19 0 50 -17q24 21 65 21q75 0 119.5 -54.5t44.5 -142.5q61 7 127 46t88 79q10 16 22 16q17 0 17 -18q0 -42 -89.5 -99.5t-170.5 -66.5q-20 -89 -72 -144t-117 -55q-90 0 -143 39.5t-53 108.5zM195 418q0 -35 30 -35q40 0 77 37t54 94 q-67 3 -120 35q-41 -74 -41 -131zM260 637q0 -32 29 -52.5t76 -25.5q0 53 -20 94t-46 41q-19 0 -29 -17.5t-10 -39.5z" />
<glyph unicode="p" horiz-adv-x="782" d="M-668 -395q0 67 97 156.5t372 271.5q114 206 194.5 404t80.5 282q0 26 9.5 36.5t31.5 10.5q39 0 68.5 -28t29.5 -68q0 -51 -31 -156q73 90 178 173t154 83q33 0 74 -35t41 -65q0 -134 -74 -262q179 100 289 266q12 18 33 18q22 0 22 -22q0 -12 -16 -35 q-57 -96 -159.5 -178.5t-217.5 -134.5q-68 -86 -153.5 -137.5t-161.5 -51.5q-50 0 -77.5 21.5t-27.5 52.5q0 37 41.5 65.5t114.5 28.5q42 0 92 12q74 145 119 381q-256 -160 -408 -528q-70 -171 -174 -327.5t-215.5 -254.5t-194.5 -98q-53 0 -92 34t-39 85zM-608 -391 q0 -15 9 -24t24 -9q53 0 137 98t180 258q-176 -122 -263 -200t-87 -123zM147 213q0 -25 39 -25q62 0 117 78q-14 -2 -41 -2q-54 0 -84.5 -16t-30.5 -35z" />
<glyph unicode="q" horiz-adv-x="671" d="M-66 -358q0 61 30 158.5t87.5 224.5t102 218t110.5 218q-117 -105 -194 -105q-35 0 -58.5 21t-23.5 55q0 45 34 152t68 147q38 47 129 47q57 0 102 -16.5t62 -44.5q11 22 14 31q10 20 25 20q29 0 69.5 -45.5t40.5 -69.5q0 -35 -180 -401q91 26 183.5 125t199.5 295 q10 16 27 16q24 0 24 -12q0 -9 -23 -54.5t-66 -111.5t-95.5 -131.5t-120.5 -120t-131 -72.5q35 -71 35 -170q0 -123 -53.5 -248.5t-130.5 -203.5t-146 -78q-51 0 -86 44.5t-35 111.5zM35 -428q0 -18 26 -18q34 0 81 41t89.5 103t72.5 146.5t30 161.5q0 79 -33 150 q-266 -526 -266 -584zM141 432q52 12 113.5 81.5t114.5 170.5q-47 21 -90 21q-28 0 -78.5 -99.5t-59.5 -173.5z" />
<glyph unicode="r" horiz-adv-x="546" d="M-14 739q0 42 21.5 65t60.5 23q77 0 77 -75q0 -40 -26 -88q30 -5 39 -5q35 0 59.5 20.5t46.5 20.5q43 0 85 -35.5t42 -72.5q0 -31 -59.5 -148.5t-59.5 -152.5q0 -25 17 -25q34 0 129.5 117.5t195.5 284.5q11 18 31 18q10 0 18.5 -5.5t8.5 -12.5q0 -9 -4 -13 q-148 -237 -250.5 -351t-190.5 -114q-47 0 -80.5 31.5t-33.5 75.5q0 45 33 148.5t63 170.5q-33 -10 -66 -10q-68 0 -112.5 36t-44.5 97zM39 750q0 -51 37 -64q24 43 24 70q0 35 -28 35q-33 0 -33 -41z" />
<glyph unicode="s" horiz-adv-x="501" d="M-123 125q0 59 67.5 115.5t180.5 103.5q-143 76 -143 164q0 79 74.5 167.5t142.5 88.5q53 0 126.5 -50t73.5 -91q0 -13 -6 -13q-3 0 -37.5 24.5t-62.5 24.5q-50 0 -98 -58t-48 -107q0 -26 20.5 -50t68.5 -55q92 44 186.5 123t130.5 145q15 27 29 27q8 0 14 -6t6 -16 q0 -9 -4 -17q-17 -42 -120 -136.5t-195 -152.5q31 -24 47 -45t16 -49q0 -48 -45 -109.5t-113 -106t-127 -44.5q-82 0 -133 35.5t-51 87.5zM-66 127q0 -33 41 -33q59 0 129 63t70 113q0 13 -8 33q-101 -40 -166.5 -86.5t-65.5 -89.5z" />
<glyph unicode="t" horiz-adv-x="419" d="M-55 311q0 95 59 249t154 323q-174 13 -174 57q0 14 16 14t51 -10q59 -17 129 -20q130 225 257.5 366.5t199.5 141.5q35 0 67.5 -26.5t32.5 -53.5q0 -11 -8 -11q-36 0 -135 -119.5t-207 -289.5q27 3 51 12q34 12 56 12q20 0 20 -14q0 -42 -158 -55q-110 -180 -182 -345.5 t-72 -260.5q0 -78 45 -78q54 0 149.5 125t184.5 317q9 21 27 21q11 0 17.5 -7.5t6.5 -19.5q-94 -199 -165.5 -312t-130 -159.5t-121.5 -46.5q-73 0 -121.5 51.5t-48.5 138.5z" />
<glyph unicode="u" horiz-adv-x="669" d="M-4 422q0 36 43 170t61 158q13 16 52 16q35 0 66.5 -14t31.5 -27q0 -7 -23 -58.5t-49.5 -120t-32.5 -112.5q61 13 132 103.5t126 214.5q6 14 21 14q30 0 70.5 -48t40.5 -81q0 -28 -69 -167t-69 -175q0 -25 17 -25q38 0 143 130t182 272q10 16 27 16q25 0 25 -24 q-125 -228 -232.5 -347.5t-202.5 -119.5q-51 0 -84.5 32t-33.5 80q0 55 51 166q-53 -56 -108.5 -91.5t-96.5 -35.5q-35 0 -61.5 24t-26.5 50z" />
<glyph unicode="v" horiz-adv-x="557" d="M-80 326q0 28 85 213.5t85 210.5q0 16 19 16q31 0 72.5 -48t41.5 -81q0 -28 -69.5 -167t-69.5 -177q0 -23 14 -23q25 0 105 90t147 189q-57 41 -57 117q0 46 27.5 75t72.5 29q35 0 56.5 -20t21.5 -54q0 -61 -57 -131q8 -2 26 -2q49 0 111.5 43.5t85.5 81.5q6 12 14 12 q7 0 12 -8.5t5 -15.5q0 -22 -38 -58t-96.5 -65t-107.5 -29q-15 0 -35 4q-82 -132 -183.5 -243t-160.5 -111q-41 0 -84 49t-43 103zM346 659q0 -47 31 -71q45 62 45 108q0 15 -8.5 24t-20.5 9q-22 0 -34.5 -19t-12.5 -51z" />
<glyph unicode="w" horiz-adv-x="976" d="M-78 291q0 50 85 244t85 215q0 16 19 16q31 0 72.5 -48t41.5 -81q0 -28 -74.5 -167t-74.5 -177q0 -23 14 -23q34 0 156 135t155 213q21 46 50 46q31 0 69.5 -37t38.5 -70q0 -34 -74.5 -199t-74.5 -200q0 -27 22 -27q48 0 165 137.5t196 276.5q-58 38 -58 108 q0 48 30 80.5t79 32.5q32 0 49.5 -15.5t17.5 -43.5q0 -48 -49 -138q53 0 123.5 41t93.5 80q6 12 13 12t11.5 -8.5t4.5 -17.5q0 -36 -85.5 -94t-164.5 -58q-12 0 -18 2q-45 -78 -106.5 -160t-128 -153t-134 -116.5t-115.5 -45.5q-42 0 -75 30.5t-33 72.5q0 63 80 256 q-66 -86 -147 -150.5t-144 -64.5q-43 0 -79 29t-36 67zM782 662q0 -53 33 -76q39 73 39 110q0 31 -27 31q-45 0 -45 -65z" />
<glyph unicode="x" horiz-adv-x="620" d="M-98 240q0 13 7.5 21.5t18.5 8.5q25 0 91.5 44.5t144.5 113.5q-51 139 -94 226t-60 87q-8 0 -8 11q0 16 33 16q49 0 118 -25t80 -51q33 -81 52 -149q108 111 172 211q10 16 28 16q27 0 27 -18q0 -27 -60 -103t-151 -168q59 -209 92 -209q50 0 293 404q10 16 33 16 q24 0 24 -18q0 -6 -4 -12q-180 -282 -250 -368.5t-122 -86.5q-51 0 -106.5 48t-78.5 114q-182 -164 -243 -164q-15 0 -26 10t-11 25z" />
<glyph unicode="y" horiz-adv-x="671" d="M-362 -313q0 67 111.5 170t397.5 299q130 220 195 387q-60 -81 -134.5 -138t-129.5 -57q-34 0 -59 21t-25 49q0 40 43 173.5t61 156.5q13 16 52 16q35 0 66.5 -14t31.5 -27q0 -7 -23 -58.5t-49.5 -120t-32.5 -112.5q61 13 133 104t127 214q6 14 21 14q31 0 71 -49t40 -86 q0 -61 -99 -267q211 171 285 285q24 39 51 39q21 0 21 -12q0 -6 -15 -29q-126 -196 -397 -387q-158 -299 -328 -485.5t-297 -186.5q-51 0 -84.5 29t-33.5 72zM-303 -301q0 -23 31 -23q59 0 154.5 104t201.5 271q-184 -133 -285.5 -224.5t-101.5 -127.5z" />
<glyph unicode="z" horiz-adv-x="671" d="M-360 -305q0 69 119 165t358 232q119 189 119 246q0 46 -76 88q-19 11 -19 14q0 5 26 15t71 34t81 60q76 76 76 139q0 36 -28 51t-66 15q-51 0 -103 -25.5t-83 -75.5q-18 -30 -41 -30q-21 0 -21 16q0 9 15 33q41 70 112 111.5t148 41.5q88 0 148.5 -52t60.5 -122 q0 -83 -77 -154.5t-175 -82.5q123 -27 123 -97q0 -13 -7 -30q94 81 179 174t131 166q36 57 59 57q8 0 13 -5t5 -13q-2 -46 -149.5 -213.5t-294.5 -274.5q-143 -265 -299 -429.5t-270 -164.5q-53 0 -94 33.5t-41 77.5zM-301 -297q0 -13 8.5 -21t22.5 -8q52 0 143 97.5 t188 238.5q-194 -115 -278 -191t-84 -116z" />
<glyph unicode="{" horiz-adv-x="700" d="M203 252q0 126 84 307q88 188 88 293q0 70 -41 70q-21 0 -21 14q0 6 13 6q113 5 196 217q68 173 169.5 278t203.5 105q39 0 65.5 -15t26.5 -38q0 -12 -8 -12q-5 0 -26 12t-40 12q-52 0 -115.5 -75.5t-113.5 -196.5q-57 -139 -138 -225t-159 -91q74 -38 74 -159 q0 -135 -92 -324q-74 -148 -74 -233q0 -80 67 -80q16 0 40.5 6t29.5 6q8 0 8 -8q0 -15 -28.5 -26t-65.5 -11q-70 0 -106.5 44t-36.5 124z" />
<glyph unicode="|" horiz-adv-x="765" d="M377 131q0 116 1 266t4.5 450.5t13.5 494.5t26 194q31 0 50.5 -26.5t19.5 -69.5q0 -50 -12.5 -713t-12.5 -702q0 -7 -11.5 -16t-23.5 -9q-26 0 -40.5 36t-14.5 95z" />
<glyph unicode="}" horiz-adv-x="702" d="M-123 127q0 12 8 12q5 0 26 -12t40 -12q52 0 115.5 75.5t113.5 196.5q57 139 138 224.5t159 90.5q-74 38 -74 160q0 133 93 324q73 146 73 233q0 80 -67 80q-16 0 -40.5 -6t-29.5 -6q-8 0 -8 8q0 15 28.5 26t65.5 11q70 0 107 -44t37 -124q0 -126 -84 -307 q-89 -190 -89 -293q0 -70 41 -70q21 0 21 -14q0 -6 -12 -6q-114 -5 -197 -217q-68 -173 -169.5 -278t-203.5 -105q-39 0 -65.5 15t-26.5 38z" />
<glyph unicode="~" d="M152 510q0 67 35 109.5t92 42.5q72 0 210 -66q128 -61 205 -61q29 0 47.5 10.5t25.5 25t10.5 29t8.5 25t15 10.5q20 0 20 -45q0 -65 -35.5 -107.5t-91.5 -42.5q-73 0 -211 66q-128 61 -204 61q-36 0 -55 -15.5t-21.5 -34.5t-8.5 -34.5t-20 -15.5q-22 0 -22 43z" />
<glyph unicode="&#xad;" d="M164 541q0 28 27.5 47.5t70.5 27.5q67 13 234 13q91 0 164.5 -5t114 -13.5t40.5 -18.5q0 -13 -35.5 -44t-56.5 -28q-9 0 -33 6q-90 23 -233 23q-89 0 -161 -10t-95 -27q-9 -6 -17 -6q-9 0 -14.5 11t-5.5 24z" />
<glyph unicode="&#x2000;" horiz-adv-x="771" />
<glyph unicode="&#x2001;" horiz-adv-x="1542" />
<glyph unicode="&#x2002;" horiz-adv-x="771" />
<glyph unicode="&#x2003;" horiz-adv-x="1542" />
<glyph unicode="&#x2004;" horiz-adv-x="514" />
<glyph unicode="&#x2005;" horiz-adv-x="385" />
<glyph unicode="&#x2006;" horiz-adv-x="257" />
<glyph unicode="&#x2007;" horiz-adv-x="257" />
<glyph unicode="&#x2008;" horiz-adv-x="192" />
<glyph unicode="&#x2009;" horiz-adv-x="308" />
<glyph unicode="&#x200a;" horiz-adv-x="85" />
<glyph unicode="&#x2010;" d="M164 541q0 28 27.5 47.5t70.5 27.5q67 13 234 13q91 0 164.5 -5t114 -13.5t40.5 -18.5q0 -13 -35.5 -44t-56.5 -28q-9 0 -33 6q-90 23 -233 23q-89 0 -161 -10t-95 -27q-9 -6 -17 -6q-9 0 -14.5 11t-5.5 24z" />
<glyph unicode="&#x2011;" d="M164 541q0 28 27.5 47.5t70.5 27.5q67 13 234 13q91 0 164.5 -5t114 -13.5t40.5 -18.5q0 -13 -35.5 -44t-56.5 -28q-9 0 -33 6q-90 23 -233 23q-89 0 -161 -10t-95 -27q-9 -6 -17 -6q-9 0 -14.5 11t-5.5 24z" />
<glyph unicode="&#x2012;" d="M164 541q0 28 27.5 47.5t70.5 27.5q67 13 234 13q91 0 164.5 -5t114 -13.5t40.5 -18.5q0 -13 -35.5 -44t-56.5 -28q-9 0 -33 6q-90 23 -233 23q-89 0 -161 -10t-95 -27q-9 -6 -17 -6q-9 0 -14.5 11t-5.5 24z" />
<glyph unicode="&#x2013;" horiz-adv-x="1310" d="M164 541q0 28 43.5 47.5t110.5 27.5q106 13 368 13q143 0 259 -5t179.5 -13.5t63.5 -18.5q0 -13 -56 -44t-89 -28q-14 0 -52 6q-141 23 -366 23q-140 0 -253.5 -10t-149.5 -27q-14 -6 -27 -6q-14 0 -22.5 11t-8.5 24z" />
<glyph unicode="&#x2014;" horiz-adv-x="2334" d="M164 541q0 28 86.5 47.5t221.5 27.5q211 13 736 13q287 0 518 -5t358.5 -13.5t127.5 -18.5q0 -13 -111.5 -44t-177.5 -28q-29 0 -104 6q-283 23 -733 23q-280 0 -506.5 -10t-299.5 -27q-28 -6 -53 -6q-28 0 -45.5 11t-17.5 24z" />
<glyph unicode="&#x202f;" horiz-adv-x="308" />
<glyph unicode="&#x205f;" horiz-adv-x="385" />
<glyph unicode="&#x25fc;" horiz-adv-x="768" d="M0 0v768h768v-768h-768z" />
</font>
</defs>
</svg>
